<svg xmlns="http://www.w3.org/2000/svg" viewBox="0 0 512 335.45"><title>en</title><g id="Layer_2" data-name="Layer 2"><g id="Layer_1-2" data-name="Layer 1"><path d="M503.17,335.45H8.83A8.83,8.83,0,0,1,0,326.62V8.83A8.83,8.83,0,0,1,8.83,0H503.17A8.83,8.83,0,0,1,512,8.83V326.62A8.83,8.83,0,0,1,503.17,335.45Z" style="fill:#f5f5f5"/><path d="M512,25.81H0v-17A8.83,8.83,0,0,1,8.83,0H503.17A8.83,8.83,0,0,1,512,8.83v17Z" style="fill:#ff4b55"/><rect y="103.22" width="512" height="25.8" style="fill:#ff4b55"/><rect y="51.61" width="512" height="25.8" style="fill:#ff4b55"/><path d="M512,180.63H8.83A8.83,8.83,0,0,1,0,171.8v-17H512Z" style="fill:#ff4b55"/><rect y="258.05" width="512" height="25.8" style="fill:#ff4b55"/><path d="M503.17,335.45H8.83A8.83,8.83,0,0,1,0,326.62v-17H512v17A8.83,8.83,0,0,1,503.17,335.45Z" style="fill:#ff4b55"/><rect y="206.44" width="512" height="25.8" style="fill:#ff4b55"/><path d="M229.52,0H8.83A8.83,8.83,0,0,0,0,8.83v163a8.83,8.83,0,0,0,8.83,8.83H229.52a8.84,8.84,0,0,0,8.83-8.83V8.83A8.83,8.83,0,0,0,229.52,0Z" style="fill:#41479b"/><path d="M24.79,20.26l1.95,5.86,6.18.05a.83.83,0,0,1,.49,1.5l-5,3.67,1.86,5.89a.83.83,0,0,1-1.28.93l-5-3.59-5,3.59a.83.83,0,0,1-1.28-.93l1.86-5.89-5-3.67a.83.83,0,0,1,.49-1.5l6.18-.05,1.95-5.86A.83.83,0,0,1,24.79,20.26Z" style="fill:#f5f5f5"/><path d="M24.79,50.92l1.95,5.86,6.18,0a.84.84,0,0,1,.49,1.51l-5,3.67,1.86,5.88a.83.83,0,0,1-1.28.93l-5-3.59-5,3.59a.83.83,0,0,1-1.28-.92L19.56,62l-5-3.67a.84.84,0,0,1,.49-1.51l6.18,0,1.95-5.86A.83.83,0,0,1,24.79,50.92Z" style="fill:#f5f5f5"/><path d="M24.79,81.57l1.95,5.86,6.18,0a.83.83,0,0,1,.49,1.5l-5,3.67,1.86,5.89a.83.83,0,0,1-1.28.93l-5-3.59-5,3.59a.83.83,0,0,1-1.28-.93l1.86-5.89-5-3.67a.83.83,0,0,1,.49-1.5l6.18,0,1.95-5.86A.83.83,0,0,1,24.79,81.57Z" style="fill:#f5f5f5"/><path d="M24.79,112.23l1.95,5.86,6.18,0a.83.83,0,0,1,.49,1.5l-5,3.67,1.86,5.89a.83.83,0,0,1-1.28.93l-5-3.59-5,3.59a.83.83,0,0,1-1.28-.93l1.86-5.88-5-3.67a.84.84,0,0,1,.49-1.51l6.18,0,1.95-5.86A.83.83,0,0,1,24.79,112.23Z" style="fill:#f5f5f5"/><path d="M24.79,142.88l1.95,5.86,6.18,0a.83.83,0,0,1,.49,1.5l-5,3.67,1.86,5.89a.83.83,0,0,1-1.28.92l-5-3.59-5,3.6a.83.83,0,0,1-1.28-.93L19.56,154l-5-3.67a.83.83,0,0,1,.49-1.5l6.18,0,1.95-5.86A.83.83,0,0,1,24.79,142.88Z" style="fill:#f5f5f5"/><path d="M48.58,35.29l2,5.86,6.17.05a.83.83,0,0,1,.49,1.5l-5,3.67,1.87,5.89a.84.84,0,0,1-1.28.93l-5-3.59-5,3.59a.84.84,0,0,1-1.28-.93l1.86-5.89-5-3.67a.83.83,0,0,1,.49-1.5l6.18-.05,2-5.86A.83.83,0,0,1,48.58,35.29Z" style="fill:#f5f5f5"/><path d="M48.58,66l2,5.86,6.17,0a.84.84,0,0,1,.49,1.51l-5,3.67,1.87,5.88a.83.83,0,0,1-1.28.93l-5-3.59-5,3.59a.83.83,0,0,1-1.28-.93L43.35,77l-5-3.67a.84.84,0,0,1,.49-1.51l6.18,0L47,66A.83.83,0,0,1,48.58,66Z" style="fill:#f5f5f5"/><path d="M48.58,96.6l2,5.86,6.17.05a.83.83,0,0,1,.49,1.5l-5,3.67,1.87,5.89a.84.84,0,0,1-1.28.93l-5-3.6-5,3.6a.84.84,0,0,1-1.28-.93l1.86-5.89-5-3.67a.83.83,0,0,1,.49-1.5l6.18-.05,2-5.86A.83.83,0,0,1,48.58,96.6Z" style="fill:#f5f5f5"/><path d="M48.58,127.25l2,5.86,6.17,0a.83.83,0,0,1,.49,1.5l-5,3.67,1.87,5.89a.83.83,0,0,1-1.28.93l-5-3.59-5,3.59a.84.84,0,0,1-1.28-.93l1.86-5.89-5-3.67a.83.83,0,0,1,.49-1.5l6.18,0,2-5.86A.84.84,0,0,1,48.58,127.25Z" style="fill:#f5f5f5"/><path d="M72.38,20.26l2,5.86,6.18.05a.83.83,0,0,1,.48,1.5l-5,3.67,1.86,5.89a.84.84,0,0,1-1.28.93l-5-3.59-5,3.59a.84.84,0,0,1-1.28-.93l1.87-5.89-5-3.67a.83.83,0,0,1,.49-1.5l6.17-.05,2-5.86A.83.83,0,0,1,72.38,20.26Z" style="fill:#f5f5f5"/><path d="M72.38,50.92l2,5.86,6.18,0A.83.83,0,0,1,81,58.33L76,62l1.86,5.88a.83.83,0,0,1-1.28.93l-5-3.59-5,3.59a.83.83,0,0,1-1.28-.93L67.15,62l-5-3.67a.84.84,0,0,1,.49-1.51l6.17,0,2-5.86A.83.83,0,0,1,72.38,50.92Z" style="fill:#f5f5f5"/><path d="M72.38,81.57l2,5.86,6.18,0A.83.83,0,0,1,81,89l-5,3.67,1.86,5.89a.84.84,0,0,1-1.28.93l-5-3.6-5,3.6a.84.84,0,0,1-1.28-.93l1.87-5.89-5-3.67a.83.83,0,0,1,.49-1.5l6.17,0,2-5.86A.83.83,0,0,1,72.38,81.57Z" style="fill:#f5f5f5"/><path d="M72.38,112.23l2,5.86,6.18,0a.83.83,0,0,1,.48,1.5l-5,3.67,1.86,5.89a.83.83,0,0,1-1.28.93l-5-3.59-5,3.59a.83.83,0,0,1-1.28-.93l1.87-5.89-5-3.67a.83.83,0,0,1,.49-1.5l6.17,0,2-5.86A.83.83,0,0,1,72.38,112.23Z" style="fill:#f5f5f5"/><path d="M72.38,142.88l2,5.86,6.18,0a.83.83,0,0,1,.48,1.5L76,154l1.86,5.89a.83.83,0,0,1-1.28.92l-5-3.59-5,3.59a.83.83,0,0,1-1.28-.92L67.15,154l-5-3.67a.83.83,0,0,1,.49-1.5l6.17,0,2-5.86A.83.83,0,0,1,72.38,142.88Z" style="fill:#f5f5f5"/><path d="M96.17,35.29l2,5.86,6.18.05a.83.83,0,0,1,.49,1.5l-5,3.67,1.86,5.89a.83.83,0,0,1-1.28.93l-5-3.59-5,3.59a.83.83,0,0,1-1.27-.93l1.86-5.89L86,42.7a.83.83,0,0,1,.49-1.5l6.18-.05,2-5.86A.83.83,0,0,1,96.17,35.29Z" style="fill:#f5f5f5"/><path d="M96.17,66l2,5.86,6.18,0a.84.84,0,0,1,.49,1.51l-5,3.67,1.86,5.88a.83.83,0,0,1-1.28.93l-5-3.59-5,3.59a.83.83,0,0,1-1.27-.93L90.94,77l-5-3.67a.84.84,0,0,1,.49-1.51l6.18,0,2-5.86A.83.83,0,0,1,96.17,66Z" style="fill:#f5f5f5"/><path d="M96.17,96.6l2,5.86,6.18.05a.83.83,0,0,1,.49,1.5l-5,3.67,1.86,5.89a.83.83,0,0,1-1.28.93l-5-3.6-5,3.6a.83.83,0,0,1-1.27-.93l1.86-5.89L86,104a.83.83,0,0,1,.49-1.5l6.18-.05,2-5.86A.83.83,0,0,1,96.17,96.6Z" style="fill:#f5f5f5"/><path d="M96.17,127.25l2,5.86,6.18,0a.83.83,0,0,1,.49,1.5l-5,3.67,1.86,5.89a.83.83,0,0,1-1.28.93l-5-3.59-5,3.59a.83.83,0,0,1-1.27-.93l1.86-5.89-5-3.67a.83.83,0,0,1,.49-1.5l6.18,0,2-5.86A.84.84,0,0,1,96.17,127.25Z" style="fill:#f5f5f5"/><path d="M120,20.26l2,5.86,6.17.05a.83.83,0,0,1,.49,1.5l-5,3.67,1.87,5.89a.84.84,0,0,1-1.28.93l-5-3.59-5,3.59a.84.84,0,0,1-1.28-.93l1.86-5.89-5-3.67a.83.83,0,0,1,.49-1.5l6.18-.05,1.95-5.86A.83.83,0,0,1,120,20.26Z" style="fill:#f5f5f5"/><path d="M120,50.92l2,5.86,6.17,0a.84.84,0,0,1,.49,1.51l-5,3.67,1.87,5.88a.83.83,0,0,1-1.28.93l-5-3.59-5,3.59a.83.83,0,0,1-1.28-.93L114.73,62l-5-3.67a.84.84,0,0,1,.49-1.51l6.18,0,1.95-5.86A.83.83,0,0,1,120,50.92Z" style="fill:#f5f5f5"/><path d="M120,81.57l2,5.86,6.17,0a.83.83,0,0,1,.49,1.5l-5,3.67,1.87,5.89a.84.84,0,0,1-1.28.93l-5-3.6-5,3.6a.84.84,0,0,1-1.28-.93l1.86-5.89-5-3.67a.83.83,0,0,1,.49-1.5l6.18,0,1.95-5.86A.83.83,0,0,1,120,81.57Z" style="fill:#f5f5f5"/><path d="M120,112.23l2,5.86,6.17,0a.83.83,0,0,1,.49,1.5l-5,3.67,1.87,5.89a.83.83,0,0,1-1.28.93l-5-3.59-5,3.59a.83.83,0,0,1-1.28-.93l1.86-5.89-5-3.67a.83.83,0,0,1,.49-1.5l6.18,0,1.95-5.86A.83.83,0,0,1,120,112.23Z" style="fill:#f5f5f5"/><path d="M120,142.88l2,5.86,6.17,0a.83.83,0,0,1,.49,1.5l-5,3.67,1.87,5.89a.83.83,0,0,1-1.28.92l-5-3.59-5,3.59a.83.83,0,0,1-1.28-.92l1.86-5.89-5-3.67a.83.83,0,0,1,.49-1.5l6.18,0,1.95-5.86A.83.83,0,0,1,120,142.88Z" style="fill:#f5f5f5"/><path d="M143.76,35.29l2,5.86,6.18.05a.83.83,0,0,1,.48,1.5l-5,3.67,1.86,5.89a.84.84,0,0,1-1.28.93l-5-3.59-5,3.59a.84.84,0,0,1-1.28-.93l1.87-5.89-5-3.67a.83.83,0,0,1,.49-1.5l6.17-.05,2-5.86A.83.83,0,0,1,143.76,35.29Z" style="fill:#f5f5f5"/><path d="M143.76,66l2,5.86,6.18,0a.83.83,0,0,1,.48,1.51l-5,3.67,1.86,5.88a.83.83,0,0,1-1.28.93l-5-3.59-5,3.59a.83.83,0,0,1-1.28-.93L138.53,77l-5-3.67a.84.84,0,0,1,.49-1.51l6.17,0,2-5.86A.83.83,0,0,1,143.76,66Z" style="fill:#f5f5f5"/><path d="M143.76,96.6l2,5.86,6.18.05a.83.83,0,0,1,.48,1.5l-5,3.67,1.86,5.89a.84.84,0,0,1-1.28.93l-5-3.6-5,3.6a.84.84,0,0,1-1.28-.93l1.87-5.89-5-3.67a.83.83,0,0,1,.49-1.5l6.17-.05,2-5.86A.83.83,0,0,1,143.76,96.6Z" style="fill:#f5f5f5"/><path d="M143.76,127.25l2,5.86,6.18,0a.83.83,0,0,1,.48,1.5l-5,3.67,1.86,5.89a.83.83,0,0,1-1.28.93l-5-3.59-5,3.59a.84.84,0,0,1-1.28-.93l1.87-5.89-5-3.67a.83.83,0,0,1,.49-1.5l6.17,0,2-5.86A.84.84,0,0,1,143.76,127.25Z" style="fill:#f5f5f5"/><path d="M167.55,20.26l1.95,5.86,6.18.05a.83.83,0,0,1,.49,1.5l-5,3.67,1.86,5.89a.83.83,0,0,1-1.27.93l-5-3.59-5,3.59a.83.83,0,0,1-1.28-.93l1.86-5.89-5-3.67a.83.83,0,0,1,.49-1.5l6.18-.05L166,20.26A.83.83,0,0,1,167.55,20.26Z" style="fill:#f5f5f5"/><path d="M167.55,50.92l1.95,5.86,6.18,0a.84.84,0,0,1,.49,1.51l-5,3.67,1.86,5.88a.83.83,0,0,1-1.27.93l-5-3.59-5,3.59a.83.83,0,0,1-1.28-.93L162.32,62l-5-3.67a.84.84,0,0,1,.49-1.51l6.18,0L166,50.92A.83.83,0,0,1,167.55,50.92Z" style="fill:#f5f5f5"/><path d="M167.55,81.57l1.95,5.86,6.18,0a.83.83,0,0,1,.49,1.5l-5,3.67,1.86,5.89a.83.83,0,0,1-1.27.93l-5-3.6-5,3.6a.83.83,0,0,1-1.28-.93l1.86-5.89-5-3.67a.83.83,0,0,1,.49-1.5l6.18,0L166,81.57A.83.83,0,0,1,167.55,81.57Z" style="fill:#f5f5f5"/><path d="M167.55,112.23l1.95,5.86,6.18,0a.83.83,0,0,1,.49,1.5l-5,3.67,1.86,5.89a.83.83,0,0,1-1.27.93l-5-3.59-5,3.59a.83.83,0,0,1-1.28-.93l1.86-5.89-5-3.67a.83.83,0,0,1,.49-1.5l6.18,0,1.95-5.86A.83.83,0,0,1,167.55,112.23Z" style="fill:#f5f5f5"/><path d="M167.55,142.88l1.95,5.86,6.18,0a.83.83,0,0,1,.49,1.5l-5,3.67,1.86,5.89a.82.82,0,0,1-1.27.92l-5-3.59-5,3.59a.83.83,0,0,1-1.28-.92l1.86-5.89-5-3.67a.83.83,0,0,1,.49-1.5l6.18,0,1.95-5.86A.83.83,0,0,1,167.55,142.88Z" style="fill:#f5f5f5"/><path d="M191.34,35.29l2,5.86,6.17.05a.83.83,0,0,1,.49,1.5l-5,3.67,1.87,5.89a.84.84,0,0,1-1.28.93l-5-3.59-5,3.59a.84.84,0,0,1-1.28-.93l1.86-5.89-5-3.67a.83.83,0,0,1,.48-1.5l6.18-.05,1.95-5.86A.83.83,0,0,1,191.34,35.29Z" style="fill:#f5f5f5"/><path d="M191.34,66l2,5.86,6.17,0a.84.84,0,0,1,.49,1.51L195,77l1.87,5.88a.83.83,0,0,1-1.28.93l-5-3.59-5,3.59a.83.83,0,0,1-1.28-.93L186.11,77l-5-3.67a.83.83,0,0,1,.48-1.51l6.18,0L189.76,66A.83.83,0,0,1,191.34,66Z" style="fill:#f5f5f5"/><path d="M191.34,96.6l2,5.86,6.17.05A.83.83,0,0,1,200,104l-5,3.67,1.87,5.89a.84.84,0,0,1-1.28.93l-5-3.6-5,3.6a.84.84,0,0,1-1.28-.93l1.86-5.89-5-3.67a.83.83,0,0,1,.48-1.5l6.18-.05,1.95-5.86A.83.83,0,0,1,191.34,96.6Z" style="fill:#f5f5f5"/><path d="M191.34,127.25l2,5.86,6.17,0a.83.83,0,0,1,.49,1.5l-5,3.67,1.87,5.89a.83.83,0,0,1-1.28.93l-5-3.59-5,3.59a.84.84,0,0,1-1.28-.93l1.86-5.89-5-3.67a.83.83,0,0,1,.48-1.5l6.18,0,1.95-5.86A.84.84,0,0,1,191.34,127.25Z" style="fill:#f5f5f5"/><path d="M215.14,20.26l2,5.86,6.18.05a.83.83,0,0,1,.49,1.5l-5,3.67,1.86,5.89a.84.84,0,0,1-1.28.93l-5-3.59-5,3.59a.84.84,0,0,1-1.28-.93l1.87-5.89-5-3.67a.83.83,0,0,1,.49-1.5l6.17-.05,2-5.86A.83.83,0,0,1,215.14,20.26Z" style="fill:#f5f5f5"/><path d="M215.14,50.92l2,5.86,6.18,0a.84.84,0,0,1,.49,1.51l-5,3.67,1.86,5.88a.83.83,0,0,1-1.28.93l-5-3.59-5,3.59a.83.83,0,0,1-1.28-.93L209.91,62l-5-3.67a.84.84,0,0,1,.49-1.51l6.17,0,2-5.86A.83.83,0,0,1,215.14,50.92Z" style="fill:#f5f5f5"/><path d="M215.14,81.57l2,5.86,6.18,0a.83.83,0,0,1,.49,1.5l-5,3.67,1.86,5.89a.84.84,0,0,1-1.28.93l-5-3.6-5,3.6a.84.84,0,0,1-1.28-.93l1.87-5.89-5-3.67a.83.83,0,0,1,.49-1.5l6.17,0,2-5.86A.83.83,0,0,1,215.14,81.57Z" style="fill:#f5f5f5"/><path d="M215.14,112.23l2,5.86,6.18,0a.83.83,0,0,1,.49,1.5l-5,3.67,1.86,5.89a.83.83,0,0,1-1.28.93l-5-3.59-5,3.59a.83.83,0,0,1-1.28-.93l1.87-5.89-5-3.67a.83.83,0,0,1,.49-1.5l6.17,0,2-5.86A.83.83,0,0,1,215.14,112.23Z" style="fill:#f5f5f5"/><path d="M215.14,142.88l2,5.86,6.18,0a.83.83,0,0,1,.49,1.5l-5,3.67,1.86,5.89a.83.83,0,0,1-1.28.92l-5-3.59-5,3.59a.83.83,0,0,1-1.28-.92l1.87-5.89-5-3.67a.83.83,0,0,1,.49-1.5l6.17,0,2-5.86A.83.83,0,0,1,215.14,142.88Z" style="fill:#f5f5f5"/></g></g></svg>