<svg xmlns="http://www.w3.org/2000/svg" viewBox="0 0 512 335.4"><title>es2</title><g id="Layer_2" data-name="Layer 2"><g id="Layer_1-2" data-name="Layer 1"><path d="M8.8,335.4H503.1a8.81,8.81,0,0,0,8.8-8.8V8.8A8.81,8.81,0,0,0,503.1,0H8.8A8.81,8.81,0,0,0,0,8.8V326.6A8.81,8.81,0,0,0,8.8,335.4Z" style="fill:#c8414b"/><rect y="70.6" width="512" height="194.2" style="fill:#ffd250"/><path d="M216.3,167.7l7.5-33.7a4.93,4.93,0,0,0-4.8-6h-5.3a4.88,4.88,0,0,0-4.8,6Z" style="fill:#c8414b"/><rect x="207.4" y="150" width="17.7" height="75" style="fill:#f5f5f5"/><rect x="203" y="141.2" width="26.5" height="8.8" style="fill:#fab446"/><rect x="185.4" y="167.7" width="44.1" height="8.8" style="fill:#c8414b"/><polygon points="229.5 203 203 194.2 203 185.4 229.5 194.2 229.5 203" style="fill:#c8414b"/><path d="M83.9,167.7,91.4,134a4.93,4.93,0,0,0-4.8-6H81.3a4.88,4.88,0,0,0-4.8,6Z" style="fill:#c8414b"/><path d="M114.8,141.2A8.81,8.81,0,0,0,106,150v57.4c0,10.7,10,30.9,44.1,30.9s44.1-20.2,44.1-30.9V150a8.81,8.81,0,0,0-8.8-8.8Z" style="fill:#f5f5f5"/><path d="M150.1,185.4H106V150.1a8.81,8.81,0,0,1,8.8-8.8h35.3Z" style="fill:#c8414b"/><path d="M150.1,185.4h44.1v22.1a22.11,22.11,0,0,1-22.1,22.1h0A22.11,22.11,0,0,1,150,207.5V185.4Z" style="fill:#c8414b"/><path d="M105.9,185.4H150v22.1a22.11,22.11,0,0,1-22.1,22.1h0a22.11,22.11,0,0,1-22.1-22.1V185.4Z" style="fill:#fab446"/><path d="M141.2,225V185.4h-8.8v43.7A22.3,22.3,0,0,0,141.2,225Z" style="fill:#c8414b"/><path d="M123.6,229V185.3h-8.8v39.6A19.85,19.85,0,0,0,123.6,229Z" style="fill:#c8414b"/><rect x="114.8" y="167.7" width="26.5" height="8.8" style="fill:#ffb441"/><rect x="114.8" y="150" width="26.5" height="8.8" style="fill:#fab446"/><rect x="119.2" y="155.3" width="17.7" height="16" style="fill:#fab446"/><rect x="75" y="150" width="17.7" height="75" style="fill:#f5f5f5"/><rect x="70.6" y="220.7" width="26.5" height="8.8" style="fill:#fab446"/><rect x="70.6" y="141.2" width="26.5" height="8.8" style="fill:#fab446"/><rect x="66.2" y="229.5" width="35.3" height="8.8" style="fill:#5064aa"/><rect x="207.4" y="220.7" width="26.5" height="8.8" style="fill:#fab446"/><rect x="198.6" y="229.5" width="35.3" height="8.8" style="fill:#5064aa"/><rect x="123.6" y="132.4" width="53" height="8.8" style="fill:#fab446"/><rect x="145.7" y="105.9" width="8.8" height="26.5" style="fill:#ffb441"/><path d="M141.2,119.1a13.2,13.2,0,1,1,13.2-13.2A13.19,13.19,0,0,1,141.2,119.1Zm0-17.6a4.4,4.4,0,1,0,4.4,4.4A4.31,4.31,0,0,0,141.2,101.5Z" style="fill:#f5f5f5"/><path d="M158.9,119.1a13.2,13.2,0,1,1,13.2-13.2A13.19,13.19,0,0,1,158.9,119.1Zm0-17.6a4.4,4.4,0,1,0,4.4,4.4A4.44,4.44,0,0,0,158.9,101.5Z" style="fill:#f5f5f5"/><path d="M176.6,128a13.2,13.2,0,1,1,13.2-13.2A13.19,13.19,0,0,1,176.6,128Zm0-17.7a4.4,4.4,0,1,0,4.4,4.4A4.44,4.44,0,0,0,176.6,110.3Z" style="fill:#f5f5f5"/><path d="M123.6,128a13.2,13.2,0,1,1,13.2-13.2A13.19,13.19,0,0,1,123.6,128Zm0-17.7a4.4,4.4,0,1,0,4.4,4.4A4.44,4.44,0,0,0,123.6,110.3Z" style="fill:#f5f5f5"/><path d="M176.6,203v4.4a4.4,4.4,0,0,1-8.8,0V203h8.8m8.8-8.8H158.9v13.2a13.2,13.2,0,0,0,26.4,0l.1-13.2Z" style="fill:#fab446"/><path d="M172.1,176.5h0a8.81,8.81,0,0,1-8.8-8.8v-8.8a8.81,8.81,0,0,1,8.8-8.8h0a8.81,8.81,0,0,1,8.8,8.8v8.8A8.69,8.69,0,0,1,172.1,176.5Z" style="fill:#ffa0d2"/><circle cx="150.1" cy="185.4" r="13.2" style="fill:#5064aa"/><rect x="145.7" y="88.3" width="8.8" height="26.5" style="fill:#fab446"/><path d="M123.6,132.4l-8.8-8.8,5.2-5.2a42.54,42.54,0,0,1,30.1-12.5h0a42.54,42.54,0,0,1,30.1,12.5l5.2,5.2-8.8,8.8Z" style="fill:#c8414b"/><circle cx="150.1" cy="123.6" r="4.4" style="fill:#ffd250"/><circle cx="132.4" cy="123.6" r="4.4" style="fill:#ffd250"/><circle cx="167.7" cy="123.6" r="4.4" style="fill:#ffd250"/><rect x="70.6" y="167.7" width="44.1" height="8.8" style="fill:#c8414b"/><polygon points="70.6 203 97.1 194.2 97.1 185.4 70.6 194.2 70.6 203" style="fill:#c8414b"/></g></g></svg>